<svg xmlns="http://www.w3.org/2000/svg" version="1.1" width="312.7mm" height="212.7mm" viewBox = " 0 0 1107.993037 753.6620369999999" >
<!-- Front--> 
<g transform="translate(22.5000185, 22.5000185) " > 
<polygon style="stroke:#000000; fill:none; stroke-width:0.0354331" points="0, 0 44.291375, 0 44.291375, 11.25000925 88.58275, 11.25000925 88.58275, 0 124.01585, 0 124.01585, 11.25000925 159.44895, 11.25000925 159.44895, 0 194.88205, 0 194.88205, 11.25000925 230.31515, 11.25000925 230.31515, 0 265.74825, 0 265.74825, 11.25000925 310.039625, 11.25000925 310.039625, 0 354.331, 0 354.331, 44.291375 343.08099075, 44.291375 343.08099075, 88.58275 354.331, 88.58275 354.331, 124.01585 343.08099075, 124.01585 343.08099075, 159.44895 354.331, 159.44895 354.331, 194.88205 343.08099075, 194.88205 343.08099075, 230.31515 354.331, 230.31515 354.331, 265.74825 343.08099075, 265.74825 343.08099075, 310.039625 354.331, 310.039625 354.331, 354.331 310.039625, 354.331 310.039625, 343.08099075 265.74825, 343.08099075 265.74825, 354.331 230.31515, 354.331 230.31515, 343.08099075 194.88205, 343.08099075 194.88205, 354.331 159.44895, 354.331 159.44895, 343.08099075 124.01585, 343.08099075 124.01585, 354.331 88.58275, 354.331 88.58275, 343.08099075 44.291375, 343.08099075 44.291375, 354.331 0, 354.331 0, 310.039625 11.25000925, 310.039625 11.25000925, 265.74825 0, 265.74825 0, 230.31515 11.25000925, 230.31515 11.25000925, 194.88205 0, 194.88205 0, 159.44895 11.25000925, 159.44895 11.25000925, 124.01585 0, 124.01585 0, 88.58275 11.25000925, 88.58275 11.25000925, 44.291375 0, 44.291375 "/> 
</g>
<!-- Back--> 
<g transform="translate(376.83101849999997, 22.5000185) " > 
<polygon style="stroke:#000000; fill:none; stroke-width:0.0354331" points="0, 0 44.291375, 0 44.291375, 11.25000925 88.58275, 11.25000925 88.58275, 0 124.01585, 0 124.01585, 11.25000925 159.44895, 11.25000925 159.44895, 0 194.88205, 0 194.88205, 11.25000925 230.31515, 11.25000925 230.31515, 0 265.74825, 0 265.74825, 11.25000925 310.039625, 11.25000925 310.039625, 0 354.331, 0 354.331, 44.291375 343.08099075, 44.291375 343.08099075, 88.58275 354.331, 88.58275 354.331, 124.01585 343.08099075, 124.01585 343.08099075, 159.44895 354.331, 159.44895 354.331, 194.88205 343.08099075, 194.88205 343.08099075, 230.31515 354.331, 230.31515 354.331, 265.74825 343.08099075, 265.74825 343.08099075, 310.039625 354.331, 310.039625 354.331, 354.331 310.039625, 354.331 310.039625, 343.08099075 265.74825, 343.08099075 265.74825, 354.331 230.31515, 354.331 230.31515, 343.08099075 194.88205, 343.08099075 194.88205, 354.331 159.44895, 354.331 159.44895, 343.08099075 124.01585, 343.08099075 124.01585, 354.331 88.58275, 354.331 88.58275, 343.08099075 44.291375, 343.08099075 44.291375, 354.331 0, 354.331 0, 310.039625 11.25000925, 310.039625 11.25000925, 265.74825 0, 265.74825 0, 230.31515 11.25000925, 230.31515 11.25000925, 194.88205 0, 194.88205 0, 159.44895 11.25000925, 159.44895 11.25000925, 124.01585 0, 124.01585 0, 88.58275 11.25000925, 88.58275 11.25000925, 44.291375 0, 44.291375 "/> 
</g>
<!-- Left--> 
<g transform="translate(731.1620184999999, 22.5000185) " > 
<polygon style="stroke:#000000; fill:none; stroke-width:0.0354331" points="11.25000925, 0 44.291375, 0 44.291375, 11.25000925 88.58275, 11.25000925 88.58275, 0 124.01585, 0 124.01585, 11.25000925 159.44895, 11.25000925 159.44895, 0 194.88205, 0 194.88205, 11.25000925 230.31515, 11.25000925 230.31515, 0 265.74825, 0 265.74825, 11.25000925 310.039625, 11.25000925 310.039625, 0 343.08099075, 0 343.08099075, 44.291375 354.331, 44.291375 354.331, 88.58275 343.08099075, 88.58275 343.08099075, 124.01585 354.331, 124.01585 354.331, 159.44895 343.08099075, 159.44895 343.08099075, 194.88205 354.331, 194.88205 354.331, 230.31515 343.08099075, 230.31515 343.08099075, 265.74825 354.331, 265.74825 354.331, 310.039625 343.08099075, 310.039625 343.08099075, 354.331 310.039625, 354.331 310.039625, 343.08099075 265.74825, 343.08099075 265.74825, 354.331 230.31515, 354.331 230.31515, 343.08099075 194.88205, 343.08099075 194.88205, 354.331 159.44895, 354.331 159.44895, 343.08099075 124.01585, 343.08099075 124.01585, 354.331 88.58275, 354.331 88.58275, 343.08099075 44.291375, 343.08099075 44.291375, 354.331 11.25000925, 354.331 11.25000925, 310.039625 0, 310.039625 0, 265.74825 11.25000925, 265.74825 11.25000925, 230.31515 0, 230.31515 0, 194.88205 11.25000925, 194.88205 11.25000925, 159.44895 0, 159.44895 0, 124.01585 11.25000925, 124.01585 11.25000925, 88.58275 0, 88.58275 0, 44.291375 11.25000925, 44.291375 "/> 
</g>
<!-- Right--> 
<g transform="translate(731.1620184999999, 376.83101849999997) " > 
<polygon style="stroke:#000000; fill:none; stroke-width:0.0354331" points="11.25000925, 0 44.291375, 0 44.291375, 11.25000925 88.58275, 11.25000925 88.58275, 0 124.01585, 0 124.01585, 11.25000925 159.44895, 11.25000925 159.44895, 0 194.88205, 0 194.88205, 11.25000925 230.31515, 11.25000925 230.31515, 0 265.74825, 0 265.74825, 11.25000925 310.039625, 11.25000925 310.039625, 0 343.08099075, 0 343.08099075, 44.291375 354.331, 44.291375 354.331, 88.58275 343.08099075, 88.58275 343.08099075, 124.01585 354.331, 124.01585 354.331, 159.44895 343.08099075, 159.44895 343.08099075, 194.88205 354.331, 194.88205 354.331, 230.31515 343.08099075, 230.31515 343.08099075, 265.74825 354.331, 265.74825 354.331, 310.039625 343.08099075, 310.039625 343.08099075, 354.331 310.039625, 354.331 310.039625, 343.08099075 265.74825, 343.08099075 265.74825, 354.331 230.31515, 354.331 230.31515, 343.08099075 194.88205, 343.08099075 194.88205, 354.331 159.44895, 354.331 159.44895, 343.08099075 124.01585, 343.08099075 124.01585, 354.331 88.58275, 354.331 88.58275, 343.08099075 44.291375, 343.08099075 44.291375, 354.331 11.25000925, 354.331 11.25000925, 310.039625 0, 310.039625 0, 265.74825 11.25000925, 265.74825 11.25000925, 230.31515 0, 230.31515 0, 194.88205 11.25000925, 194.88205 11.25000925, 159.44895 0, 159.44895 0, 124.01585 11.25000925, 124.01585 11.25000925, 88.58275 0, 88.58275 0, 44.291375 11.25000925, 44.291375 "/> 
</g>
<!-- Top--> 
<g transform="translate(22.5000185, 376.83101849999997) " > 
<polygon style="stroke:#000000; fill:none; stroke-width:0.0354331" points="11.25000925, 11.25000925 44.291375, 11.25000925 44.291375, 0 88.58275, 0 88.58275, 11.25000925 124.01585, 11.25000925 124.01585, 0 159.44895, 0 159.44895, 11.25000925 194.88205, 11.25000925 194.88205, 0 230.31515, 0 230.31515, 11.25000925 265.74825, 11.25000925 265.74825, 0 310.039625, 0 310.039625, 11.25000925 343.08099075, 11.25000925 343.08099075, 44.291375 354.331, 44.291375 354.331, 88.58275 343.08099075, 88.58275 343.08099075, 124.01585 354.331, 124.01585 354.331, 159.44895 343.08099075, 159.44895 343.08099075, 194.88205 354.331, 194.88205 354.331, 230.31515 343.08099075, 230.31515 343.08099075, 265.74825 354.331, 265.74825 354.331, 310.039625 343.08099075, 310.039625 343.08099075, 343.08099075 310.039625, 343.08099075 310.039625, 354.331 265.74825, 354.331 265.74825, 343.08099075 230.31515, 343.08099075 230.31515, 354.331 194.88205, 354.331 194.88205, 343.08099075 159.44895, 343.08099075 159.44895, 354.331 124.01585, 354.331 124.01585, 343.08099075 88.58275, 343.08099075 88.58275, 354.331 44.291375, 354.331 44.291375, 343.08099075 11.25000925, 343.08099075 11.25000925, 310.039625 0, 310.039625 0, 265.74825 11.25000925, 265.74825 11.25000925, 230.31515 0, 230.31515 0, 194.88205 11.25000925, 194.88205 11.25000925, 159.44895 0, 159.44895 0, 124.01585 11.25000925, 124.01585 11.25000925, 88.58275 0, 88.58275 0, 44.291375 11.25000925, 44.291375 "/> 
</g>
<!-- Bottom--> 
<g transform="translate(376.83101849999997, 376.83101849999997) " > 
<polygon style="stroke:#000000; fill:none; stroke-width:0.0354331" points="11.25000925, 11.25000925 44.291375, 11.25000925 44.291375, 0 88.58275, 0 88.58275, 11.25000925 124.01585, 11.25000925 124.01585, 0 159.44895, 0 159.44895, 11.25000925 194.88205, 11.25000925 194.88205, 0 230.31515, 0 230.31515, 11.25000925 265.74825, 11.25000925 265.74825, 0 310.039625, 0 310.039625, 11.25000925 343.08099075, 11.25000925 343.08099075, 44.291375 354.331, 44.291375 354.331, 88.58275 343.08099075, 88.58275 343.08099075, 124.01585 354.331, 124.01585 354.331, 159.44895 343.08099075, 159.44895 343.08099075, 194.88205 354.331, 194.88205 354.331, 230.31515 343.08099075, 230.31515 343.08099075, 265.74825 354.331, 265.74825 354.331, 310.039625 343.08099075, 310.039625 343.08099075, 343.08099075 310.039625, 343.08099075 310.039625, 354.331 265.74825, 354.331 265.74825, 343.08099075 230.31515, 343.08099075 230.31515, 354.331 194.88205, 354.331 194.88205, 343.08099075 159.44895, 343.08099075 159.44895, 354.331 124.01585, 354.331 124.01585, 343.08099075 88.58275, 343.08099075 88.58275, 354.331 44.291375, 354.331 44.291375, 343.08099075 11.25000925, 343.08099075 11.25000925, 310.039625 0, 310.039625 0, 265.74825 11.25000925, 265.74825 11.25000925, 230.31515 0, 230.31515 0, 194.88205 11.25000925, 194.88205 11.25000925, 159.44895 0, 159.44895 0, 124.01585 11.25000925, 124.01585 11.25000925, 88.58275 0, 88.58275 0, 44.291375 11.25000925, 44.291375 "/> 
</g></svg>