<svg xmlns="http://www.w3.org/2000/svg" version="1.1" width="312.7mm" height="212.7mm" viewBox = " 0 0 1107.993037 753.6620369999999" >
<!-- Front--> 
<g transform="translate(22.5000185, 22.5000185) " > 
<polygon style="stroke:#000000; fill:none; stroke-width:0.354331" points="0, 0 48.7205125, 0 48.7205125, 22.5000185 97.441025, 22.5000185 97.441025, 0 129.330815, 0 129.330815, 22.5000185 161.22060499999998, 22.5000185 161.22060499999998, 0 193.11039499999998, 0 193.11039499999998, 22.5000185 225.000185, 22.5000185 225.000185, 0 256.889975, 0 256.889975, 22.5000185 305.6104875, 22.5000185 305.6104875, 0 354.331, 0 354.331, 48.7205125 331.8309815, 48.7205125 331.8309815, 97.441025 354.331, 97.441025 354.331, 129.330815 331.8309815, 129.330815 331.8309815, 161.22060499999998 354.331, 161.22060499999998 354.331, 193.11039499999998 331.8309815, 193.11039499999998 331.8309815, 225.000185 354.331, 225.000185 354.331, 256.889975 331.8309815, 256.889975 331.8309815, 305.6104875 354.331, 305.6104875 354.331, 354.331 305.6104875, 354.331 305.6104875, 331.8309815 256.889975, 331.8309815 256.889975, 354.331 225.000185, 354.331 225.000185, 331.8309815 193.11039499999998, 331.8309815 193.11039499999998, 354.331 161.22060499999998, 354.331 161.22060499999998, 331.8309815 129.330815, 331.8309815 129.330815, 354.331 97.441025, 354.331 97.441025, 331.8309815 48.7205125, 331.8309815 48.7205125, 354.331 0, 354.331 0, 305.6104875 22.5000185, 305.6104875 22.5000185, 256.889975 0, 256.889975 0, 225.000185 22.5000185, 225.000185 22.5000185, 193.11039499999998 0, 193.11039499999998 0, 161.22060499999998 22.5000185, 161.22060499999998 22.5000185, 129.330815 0, 129.330815 0, 97.441025 22.5000185, 97.441025 22.5000185, 48.7205125 0, 48.7205125 "/> 
</g>
<!-- Back--> 
<g transform="translate(376.83101849999997, 22.5000185) " > 
<polygon style="stroke:#000000; fill:none; stroke-width:0.354331" points="0, 0 48.7205125, 0 48.7205125, 22.5000185 97.441025, 22.5000185 97.441025, 0 129.330815, 0 129.330815, 22.5000185 161.22060499999998, 22.5000185 161.22060499999998, 0 193.11039499999998, 0 193.11039499999998, 22.5000185 225.000185, 22.5000185 225.000185, 0 256.889975, 0 256.889975, 22.5000185 305.6104875, 22.5000185 305.6104875, 0 354.331, 0 354.331, 48.7205125 331.8309815, 48.7205125 331.8309815, 97.441025 354.331, 97.441025 354.331, 129.330815 331.8309815, 129.330815 331.8309815, 161.22060499999998 354.331, 161.22060499999998 354.331, 193.11039499999998 331.8309815, 193.11039499999998 331.8309815, 225.000185 354.331, 225.000185 354.331, 256.889975 331.8309815, 256.889975 331.8309815, 305.6104875 354.331, 305.6104875 354.331, 354.331 305.6104875, 354.331 305.6104875, 331.8309815 256.889975, 331.8309815 256.889975, 354.331 225.000185, 354.331 225.000185, 331.8309815 193.11039499999998, 331.8309815 193.11039499999998, 354.331 161.22060499999998, 354.331 161.22060499999998, 331.8309815 129.330815, 331.8309815 129.330815, 354.331 97.441025, 354.331 97.441025, 331.8309815 48.7205125, 331.8309815 48.7205125, 354.331 0, 354.331 0, 305.6104875 22.5000185, 305.6104875 22.5000185, 256.889975 0, 256.889975 0, 225.000185 22.5000185, 225.000185 22.5000185, 193.11039499999998 0, 193.11039499999998 0, 161.22060499999998 22.5000185, 161.22060499999998 22.5000185, 129.330815 0, 129.330815 0, 97.441025 22.5000185, 97.441025 22.5000185, 48.7205125 0, 48.7205125 "/> 
</g>
<!-- Left--> 
<g transform="translate(731.1620184999999, 22.5000185) " > 
<polygon style="stroke:#000000; fill:none; stroke-width:0.354331" points="22.5000185, 0 48.7205125, 0 48.7205125, 22.5000185 97.441025, 22.5000185 97.441025, 0 129.330815, 0 129.330815, 22.5000185 161.22060499999998, 22.5000185 161.22060499999998, 0 193.11039499999998, 0 193.11039499999998, 22.5000185 225.000185, 22.5000185 225.000185, 0 256.889975, 0 256.889975, 22.5000185 305.6104875, 22.5000185 305.6104875, 0 331.8309815, 0 331.8309815, 48.7205125 354.331, 48.7205125 354.331, 97.441025 331.8309815, 97.441025 331.8309815, 129.330815 354.331, 129.330815 354.331, 161.22060499999998 331.8309815, 161.22060499999998 331.8309815, 193.11039499999998 354.331, 193.11039499999998 354.331, 225.000185 331.8309815, 225.000185 331.8309815, 256.889975 354.331, 256.889975 354.331, 305.6104875 331.8309815, 305.6104875 331.8309815, 354.331 305.6104875, 354.331 305.6104875, 331.8309815 256.889975, 331.8309815 256.889975, 354.331 225.000185, 354.331 225.000185, 331.8309815 193.11039499999998, 331.8309815 193.11039499999998, 354.331 161.22060499999998, 354.331 161.22060499999998, 331.8309815 129.330815, 331.8309815 129.330815, 354.331 97.441025, 354.331 97.441025, 331.8309815 48.7205125, 331.8309815 48.7205125, 354.331 22.5000185, 354.331 22.5000185, 305.6104875 0, 305.6104875 0, 256.889975 22.5000185, 256.889975 22.5000185, 225.000185 0, 225.000185 0, 193.11039499999998 22.5000185, 193.11039499999998 22.5000185, 161.22060499999998 0, 161.22060499999998 0, 129.330815 22.5000185, 129.330815 22.5000185, 97.441025 0, 97.441025 0, 48.7205125 22.5000185, 48.7205125 "/> 
</g>
<!-- Right--> 
<g transform="translate(731.1620184999999, 376.83101849999997) " > 
<polygon style="stroke:#000000; fill:none; stroke-width:0.354331" points="22.5000185, 0 48.7205125, 0 48.7205125, 22.5000185 97.441025, 22.5000185 97.441025, 0 129.330815, 0 129.330815, 22.5000185 161.22060499999998, 22.5000185 161.22060499999998, 0 193.11039499999998, 0 193.11039499999998, 22.5000185 225.000185, 22.5000185 225.000185, 0 256.889975, 0 256.889975, 22.5000185 305.6104875, 22.5000185 305.6104875, 0 331.8309815, 0 331.8309815, 48.7205125 354.331, 48.7205125 354.331, 97.441025 331.8309815, 97.441025 331.8309815, 129.330815 354.331, 129.330815 354.331, 161.22060499999998 331.8309815, 161.22060499999998 331.8309815, 193.11039499999998 354.331, 193.11039499999998 354.331, 225.000185 331.8309815, 225.000185 331.8309815, 256.889975 354.331, 256.889975 354.331, 305.6104875 331.8309815, 305.6104875 331.8309815, 354.331 305.6104875, 354.331 305.6104875, 331.8309815 256.889975, 331.8309815 256.889975, 354.331 225.000185, 354.331 225.000185, 331.8309815 193.11039499999998, 331.8309815 193.11039499999998, 354.331 161.22060499999998, 354.331 161.22060499999998, 331.8309815 129.330815, 331.8309815 129.330815, 354.331 97.441025, 354.331 97.441025, 331.8309815 48.7205125, 331.8309815 48.7205125, 354.331 22.5000185, 354.331 22.5000185, 305.6104875 0, 305.6104875 0, 256.889975 22.5000185, 256.889975 22.5000185, 225.000185 0, 225.000185 0, 193.11039499999998 22.5000185, 193.11039499999998 22.5000185, 161.22060499999998 0, 161.22060499999998 0, 129.330815 22.5000185, 129.330815 22.5000185, 97.441025 0, 97.441025 0, 48.7205125 22.5000185, 48.7205125 "/> 
</g>
<!-- Top--> 
<g transform="translate(22.5000185, 376.83101849999997) " > 
<polygon style="stroke:#000000; fill:none; stroke-width:0.354331" points="22.5000185, 22.5000185 48.7205125, 22.5000185 48.7205125, 0 97.441025, 0 97.441025, 22.5000185 129.330815, 22.5000185 129.330815, 0 161.22060499999998, 0 161.22060499999998, 22.5000185 193.11039499999998, 22.5000185 193.11039499999998, 0 225.000185, 0 225.000185, 22.5000185 256.889975, 22.5000185 256.889975, 0 305.6104875, 0 305.6104875, 22.5000185 331.8309815, 22.5000185 331.8309815, 48.7205125 354.331, 48.7205125 354.331, 97.441025 331.8309815, 97.441025 331.8309815, 129.330815 354.331, 129.330815 354.331, 161.22060499999998 331.8309815, 161.22060499999998 331.8309815, 193.11039499999998 354.331, 193.11039499999998 354.331, 225.000185 331.8309815, 225.000185 331.8309815, 256.889975 354.331, 256.889975 354.331, 305.6104875 331.8309815, 305.6104875 331.8309815, 331.8309815 305.6104875, 331.8309815 305.6104875, 354.331 256.889975, 354.331 256.889975, 331.8309815 225.000185, 331.8309815 225.000185, 354.331 193.11039499999998, 354.331 193.11039499999998, 331.8309815 161.22060499999998, 331.8309815 161.22060499999998, 354.331 129.330815, 354.331 129.330815, 331.8309815 97.441025, 331.8309815 97.441025, 354.331 48.7205125, 354.331 48.7205125, 331.8309815 22.5000185, 331.8309815 22.5000185, 305.6104875 0, 305.6104875 0, 256.889975 22.5000185, 256.889975 22.5000185, 225.000185 0, 225.000185 0, 193.11039499999998 22.5000185, 193.11039499999998 22.5000185, 161.22060499999998 0, 161.22060499999998 0, 129.330815 22.5000185, 129.330815 22.5000185, 97.441025 0, 97.441025 0, 48.7205125 22.5000185, 48.7205125 "/> 
</g>
<!-- Bottom--> 
<g transform="translate(376.83101849999997, 376.83101849999997) " > 
<polygon style="stroke:#000000; fill:none; stroke-width:0.354331" points="22.5000185, 22.5000185 48.7205125, 22.5000185 48.7205125, 0 97.441025, 0 97.441025, 22.5000185 129.330815, 22.5000185 129.330815, 0 161.22060499999998, 0 161.22060499999998, 22.5000185 193.11039499999998, 22.5000185 193.11039499999998, 0 225.000185, 0 225.000185, 22.5000185 256.889975, 22.5000185 256.889975, 0 305.6104875, 0 305.6104875, 22.5000185 331.8309815, 22.5000185 331.8309815, 48.7205125 354.331, 48.7205125 354.331, 97.441025 331.8309815, 97.441025 331.8309815, 129.330815 354.331, 129.330815 354.331, 161.22060499999998 331.8309815, 161.22060499999998 331.8309815, 193.11039499999998 354.331, 193.11039499999998 354.331, 225.000185 331.8309815, 225.000185 331.8309815, 256.889975 354.331, 256.889975 354.331, 305.6104875 331.8309815, 305.6104875 331.8309815, 331.8309815 305.6104875, 331.8309815 305.6104875, 354.331 256.889975, 354.331 256.889975, 331.8309815 225.000185, 331.8309815 225.000185, 354.331 193.11039499999998, 354.331 193.11039499999998, 331.8309815 161.22060499999998, 331.8309815 161.22060499999998, 354.331 129.330815, 354.331 129.330815, 331.8309815 97.441025, 331.8309815 97.441025, 354.331 48.7205125, 354.331 48.7205125, 331.8309815 22.5000185, 331.8309815 22.5000185, 305.6104875 0, 305.6104875 0, 256.889975 22.5000185, 256.889975 22.5000185, 225.000185 0, 225.000185 0, 193.11039499999998 22.5000185, 193.11039499999998 22.5000185, 161.22060499999998 0, 161.22060499999998 0, 129.330815 22.5000185, 129.330815 22.5000185, 97.441025 0, 97.441025 0, 48.7205125 22.5000185, 48.7205125 "/> 
</g></svg>