<svg xmlns="http://www.w3.org/2000/svg" version="1.1" width="225.09999999999997mm" height="154.29999999999998mm" viewBox = " 0 0 797.5990809999998 546.7327329999999" >
<!-- Front--> 
<g transform="translate(22.5000185, 22.5000185) " > 
<polygon style="stroke:#000000; fill:none; stroke-width:0.90000074" points="0, 0 50.1732696, 0 50.1732696, 19.133874000000002 100.3465392, 19.133874000000002 100.3465392, 0 150.5198088, 0 150.5198088, 19.133874000000002 200.6930784, 19.133874000000002 200.6930784, 0 250.866348, 0 250.866348, 50.1732696 231.732474, 50.1732696 231.732474, 100.3465392 250.866348, 100.3465392 250.866348, 150.5198088 231.732474, 150.5198088 231.732474, 200.6930784 250.866348, 200.6930784 250.866348, 250.866348 200.6930784, 250.866348 200.6930784, 231.732474 150.5198088, 231.732474 150.5198088, 250.866348 100.3465392, 250.866348 100.3465392, 231.732474 50.1732696, 231.732474 50.1732696, 250.866348 0, 250.866348 0, 200.6930784 19.133874000000002, 200.6930784 19.133874000000002, 150.5198088 0, 150.5198088 0, 100.3465392 19.133874000000002, 100.3465392 19.133874000000002, 50.1732696 0, 50.1732696 "/> 
</g>
<!-- Back--> 
<g transform="translate(273.36636649999997, 22.5000185) " > 
<polygon style="stroke:#000000; fill:none; stroke-width:0.90000074" points="0, 0 50.1732696, 0 50.1732696, 19.133874000000002 100.3465392, 19.133874000000002 100.3465392, 0 150.5198088, 0 150.5198088, 19.133874000000002 200.6930784, 19.133874000000002 200.6930784, 0 250.866348, 0 250.866348, 50.1732696 231.732474, 50.1732696 231.732474, 100.3465392 250.866348, 100.3465392 250.866348, 150.5198088 231.732474, 150.5198088 231.732474, 200.6930784 250.866348, 200.6930784 250.866348, 250.866348 200.6930784, 250.866348 200.6930784, 231.732474 150.5198088, 231.732474 150.5198088, 250.866348 100.3465392, 250.866348 100.3465392, 231.732474 50.1732696, 231.732474 50.1732696, 250.866348 0, 250.866348 0, 200.6930784 19.133874000000002, 200.6930784 19.133874000000002, 150.5198088 0, 150.5198088 0, 100.3465392 19.133874000000002, 100.3465392 19.133874000000002, 50.1732696 0, 50.1732696 "/> 
</g>
<!-- Left--> 
<g transform="translate(524.2327144999999, 22.5000185) " > 
<polygon style="stroke:#000000; fill:none; stroke-width:0.90000074" points="19.133874000000002, 0 50.1732696, 0 50.1732696, 19.133874000000002 100.3465392, 19.133874000000002 100.3465392, 0 150.5198088, 0 150.5198088, 19.133874000000002 200.6930784, 19.133874000000002 200.6930784, 0 231.732474, 0 231.732474, 50.1732696 250.866348, 50.1732696 250.866348, 100.3465392 231.732474, 100.3465392 231.732474, 150.5198088 250.866348, 150.5198088 250.866348, 200.6930784 231.732474, 200.6930784 231.732474, 250.866348 200.6930784, 250.866348 200.6930784, 231.732474 150.5198088, 231.732474 150.5198088, 250.866348 100.3465392, 250.866348 100.3465392, 231.732474 50.1732696, 231.732474 50.1732696, 250.866348 19.133874000000002, 250.866348 19.133874000000002, 200.6930784 0, 200.6930784 0, 150.5198088 19.133874000000002, 150.5198088 19.133874000000002, 100.3465392 0, 100.3465392 0, 50.1732696 19.133874000000002, 50.1732696 "/> 
</g>
<!-- Right--> 
<g transform="translate(524.2327144999999, 273.36636649999997) " > 
<polygon style="stroke:#000000; fill:none; stroke-width:0.90000074" points="19.133874000000002, 0 50.1732696, 0 50.1732696, 19.133874000000002 100.3465392, 19.133874000000002 100.3465392, 0 150.5198088, 0 150.5198088, 19.133874000000002 200.6930784, 19.133874000000002 200.6930784, 0 231.732474, 0 231.732474, 50.1732696 250.866348, 50.1732696 250.866348, 100.3465392 231.732474, 100.3465392 231.732474, 150.5198088 250.866348, 150.5198088 250.866348, 200.6930784 231.732474, 200.6930784 231.732474, 250.866348 200.6930784, 250.866348 200.6930784, 231.732474 150.5198088, 231.732474 150.5198088, 250.866348 100.3465392, 250.866348 100.3465392, 231.732474 50.1732696, 231.732474 50.1732696, 250.866348 19.133874000000002, 250.866348 19.133874000000002, 200.6930784 0, 200.6930784 0, 150.5198088 19.133874000000002, 150.5198088 19.133874000000002, 100.3465392 0, 100.3465392 0, 50.1732696 19.133874000000002, 50.1732696 "/> 
</g>
<!-- Top--> 
<g transform="translate(22.5000185, 273.36636649999997) " > 
<polygon style="stroke:#000000; fill:none; stroke-width:0.90000074" points="19.133874000000002, 19.133874000000002 50.1732696, 19.133874000000002 50.1732696, 0 100.3465392, 0 100.3465392, 19.133874000000002 150.5198088, 19.133874000000002 150.5198088, 0 200.6930784, 0 200.6930784, 19.133874000000002 231.732474, 19.133874000000002 231.732474, 50.1732696 250.866348, 50.1732696 250.866348, 100.3465392 231.732474, 100.3465392 231.732474, 150.5198088 250.866348, 150.5198088 250.866348, 200.6930784 231.732474, 200.6930784 231.732474, 231.732474 200.6930784, 231.732474 200.6930784, 250.866348 150.5198088, 250.866348 150.5198088, 231.732474 100.3465392, 231.732474 100.3465392, 250.866348 50.1732696, 250.866348 50.1732696, 231.732474 19.133874000000002, 231.732474 19.133874000000002, 200.6930784 0, 200.6930784 0, 150.5198088 19.133874000000002, 150.5198088 19.133874000000002, 100.3465392 0, 100.3465392 0, 50.1732696 19.133874000000002, 50.1732696 "/> 
</g>
<!-- Bottom--> 
<g transform="translate(273.36636649999997, 273.36636649999997) " > 
<polygon style="stroke:#000000; fill:none; stroke-width:0.90000074" points="19.133874000000002, 19.133874000000002 50.1732696, 19.133874000000002 50.1732696, 0 100.3465392, 0 100.3465392, 19.133874000000002 150.5198088, 19.133874000000002 150.5198088, 0 200.6930784, 0 200.6930784, 19.133874000000002 231.732474, 19.133874000000002 231.732474, 50.1732696 250.866348, 50.1732696 250.866348, 100.3465392 231.732474, 100.3465392 231.732474, 150.5198088 250.866348, 150.5198088 250.866348, 200.6930784 231.732474, 200.6930784 231.732474, 231.732474 200.6930784, 231.732474 200.6930784, 250.866348 150.5198088, 250.866348 150.5198088, 231.732474 100.3465392, 231.732474 100.3465392, 250.866348 50.1732696, 250.866348 50.1732696, 231.732474 19.133874000000002, 231.732474 19.133874000000002, 200.6930784 0, 200.6930784 0, 150.5198088 19.133874000000002, 150.5198088 19.133874000000002, 100.3465392 0, 100.3465392 0, 50.1732696 19.133874000000002, 50.1732696 "/> 
</g></svg>