<svg xmlns="http://www.w3.org/2000/svg" version="1.1" width="211.74999999999997mm" height="145.39999999999998mm" viewBox = " 0 0 750.2958924999999 515.1972739999999" >
<!-- Front--> 
<g transform="translate(22.5000185, 22.5000185) " > 
<polygon style="stroke:#000000; fill:none; stroke-width:0.0354331" points="0, 0 32.19982962499999, 0 32.19982962499999, 11.25000925 64.39965924999998, 11.25000925 64.39965924999998, 0 85.65951924999999, 0 85.65951924999999, 11.25000925 106.91937924999999, 11.25000925 106.91937924999999, 0 128.17923924999997, 0 128.17923924999997, 11.25000925 149.43909924999997, 11.25000925 149.43909924999997, 0 170.69895924999997, 0 170.69895924999997, 11.25000925 202.89878887499998, 11.25000925 202.89878887499998, 0 235.0986185, 0 235.0986185, 32.19982962499999 223.84860924999998, 32.19982962499999 223.84860924999998, 64.39965924999998 235.0986185, 64.39965924999998 235.0986185, 85.65951924999999 223.84860924999998, 85.65951924999999 223.84860924999998, 106.91937924999999 235.0986185, 106.91937924999999 235.0986185, 128.17923924999997 223.84860924999998, 128.17923924999997 223.84860924999998, 149.43909924999997 235.0986185, 149.43909924999997 235.0986185, 170.69895924999997 223.84860924999998, 170.69895924999997 223.84860924999998, 202.89878887499998 235.0986185, 202.89878887499998 235.0986185, 235.0986185 202.89878887499998, 235.0986185 202.89878887499998, 223.84860924999998 170.69895924999997, 223.84860924999998 170.69895924999997, 235.0986185 149.43909924999997, 235.0986185 149.43909924999997, 223.84860924999998 128.17923924999997, 223.84860924999998 128.17923924999997, 235.0986185 106.91937924999999, 235.0986185 106.91937924999999, 223.84860924999998 85.65951924999999, 223.84860924999998 85.65951924999999, 235.0986185 64.39965924999998, 235.0986185 64.39965924999998, 223.84860924999998 32.19982962499999, 223.84860924999998 32.19982962499999, 235.0986185 0, 235.0986185 0, 202.89878887499998 11.25000925, 202.89878887499998 11.25000925, 170.69895924999997 0, 170.69895924999997 0, 149.43909924999997 11.25000925, 149.43909924999997 11.25000925, 128.17923924999997 0, 128.17923924999997 0, 106.91937924999999 11.25000925, 106.91937924999999 11.25000925, 85.65951924999999 0, 85.65951924999999 0, 64.39965924999998 11.25000925, 64.39965924999998 11.25000925, 32.19982962499999 0, 32.19982962499999 "/> 
</g>
<!-- Back--> 
<g transform="translate(257.59863699999994, 22.5000185) " > 
<polygon style="stroke:#000000; fill:none; stroke-width:0.0354331" points="0, 0 32.19982962499999, 0 32.19982962499999, 11.25000925 64.39965924999998, 11.25000925 64.39965924999998, 0 85.65951924999999, 0 85.65951924999999, 11.25000925 106.91937924999999, 11.25000925 106.91937924999999, 0 128.17923924999997, 0 128.17923924999997, 11.25000925 149.43909924999997, 11.25000925 149.43909924999997, 0 170.69895924999997, 0 170.69895924999997, 11.25000925 202.89878887499998, 11.25000925 202.89878887499998, 0 235.0986185, 0 235.0986185, 32.19982962499999 223.84860924999998, 32.19982962499999 223.84860924999998, 64.39965924999998 235.0986185, 64.39965924999998 235.0986185, 85.65951924999999 223.84860924999998, 85.65951924999999 223.84860924999998, 106.91937924999999 235.0986185, 106.91937924999999 235.0986185, 128.17923924999997 223.84860924999998, 128.17923924999997 223.84860924999998, 149.43909924999997 235.0986185, 149.43909924999997 235.0986185, 170.69895924999997 223.84860924999998, 170.69895924999997 223.84860924999998, 202.89878887499998 235.0986185, 202.89878887499998 235.0986185, 235.0986185 202.89878887499998, 235.0986185 202.89878887499998, 223.84860924999998 170.69895924999997, 223.84860924999998 170.69895924999997, 235.0986185 149.43909924999997, 235.0986185 149.43909924999997, 223.84860924999998 128.17923924999997, 223.84860924999998 128.17923924999997, 235.0986185 106.91937924999999, 235.0986185 106.91937924999999, 223.84860924999998 85.65951924999999, 223.84860924999998 85.65951924999999, 235.0986185 64.39965924999998, 235.0986185 64.39965924999998, 223.84860924999998 32.19982962499999, 223.84860924999998 32.19982962499999, 235.0986185 0, 235.0986185 0, 202.89878887499998 11.25000925, 202.89878887499998 11.25000925, 170.69895924999997 0, 170.69895924999997 0, 149.43909924999997 11.25000925, 149.43909924999997 11.25000925, 128.17923924999997 0, 128.17923924999997 0, 106.91937924999999 11.25000925, 106.91937924999999 11.25000925, 85.65951924999999 0, 85.65951924999999 0, 64.39965924999998 11.25000925, 64.39965924999998 11.25000925, 32.19982962499999 0, 32.19982962499999 "/> 
</g>
<!-- Left--> 
<g transform="translate(492.6972554999999, 22.5000185) " > 
<polygon style="stroke:#000000; fill:none; stroke-width:0.0354331" points="11.25000925, 0 32.19982962499999, 0 32.19982962499999, 11.25000925 64.39965924999998, 11.25000925 64.39965924999998, 0 85.65951924999999, 0 85.65951924999999, 11.25000925 106.91937924999999, 11.25000925 106.91937924999999, 0 128.17923924999997, 0 128.17923924999997, 11.25000925 149.43909924999997, 11.25000925 149.43909924999997, 0 170.69895924999997, 0 170.69895924999997, 11.25000925 202.89878887499998, 11.25000925 202.89878887499998, 0 223.84860924999998, 0 223.84860924999998, 32.19982962499999 235.0986185, 32.19982962499999 235.0986185, 64.39965924999998 223.84860924999998, 64.39965924999998 223.84860924999998, 85.65951924999999 235.0986185, 85.65951924999999 235.0986185, 106.91937924999999 223.84860924999998, 106.91937924999999 223.84860924999998, 128.17923924999997 235.0986185, 128.17923924999997 235.0986185, 149.43909924999997 223.84860924999998, 149.43909924999997 223.84860924999998, 170.69895924999997 235.0986185, 170.69895924999997 235.0986185, 202.89878887499998 223.84860924999998, 202.89878887499998 223.84860924999998, 235.0986185 202.89878887499998, 235.0986185 202.89878887499998, 223.84860924999998 170.69895924999997, 223.84860924999998 170.69895924999997, 235.0986185 149.43909924999997, 235.0986185 149.43909924999997, 223.84860924999998 128.17923924999997, 223.84860924999998 128.17923924999997, 235.0986185 106.91937924999999, 235.0986185 106.91937924999999, 223.84860924999998 85.65951924999999, 223.84860924999998 85.65951924999999, 235.0986185 64.39965924999998, 235.0986185 64.39965924999998, 223.84860924999998 32.19982962499999, 223.84860924999998 32.19982962499999, 235.0986185 11.25000925, 235.0986185 11.25000925, 202.89878887499998 0, 202.89878887499998 0, 170.69895924999997 11.25000925, 170.69895924999997 11.25000925, 149.43909924999997 0, 149.43909924999997 0, 128.17923924999997 11.25000925, 128.17923924999997 11.25000925, 106.91937924999999 0, 106.91937924999999 0, 85.65951924999999 11.25000925, 85.65951924999999 11.25000925, 64.39965924999998 0, 64.39965924999998 0, 32.19982962499999 11.25000925, 32.19982962499999 "/> 
</g>
<!-- Right--> 
<g transform="translate(492.6972554999999, 257.59863699999994) " > 
<polygon style="stroke:#000000; fill:none; stroke-width:0.0354331" points="11.25000925, 0 32.19982962499999, 0 32.19982962499999, 11.25000925 64.39965924999998, 11.25000925 64.39965924999998, 0 85.65951924999999, 0 85.65951924999999, 11.25000925 106.91937924999999, 11.25000925 106.91937924999999, 0 128.17923924999997, 0 128.17923924999997, 11.25000925 149.43909924999997, 11.25000925 149.43909924999997, 0 170.69895924999997, 0 170.69895924999997, 11.25000925 202.89878887499998, 11.25000925 202.89878887499998, 0 223.84860924999998, 0 223.84860924999998, 32.19982962499999 235.0986185, 32.19982962499999 235.0986185, 64.39965924999998 223.84860924999998, 64.39965924999998 223.84860924999998, 85.65951924999999 235.0986185, 85.65951924999999 235.0986185, 106.91937924999999 223.84860924999998, 106.91937924999999 223.84860924999998, 128.17923924999997 235.0986185, 128.17923924999997 235.0986185, 149.43909924999997 223.84860924999998, 149.43909924999997 223.84860924999998, 170.69895924999997 235.0986185, 170.69895924999997 235.0986185, 202.89878887499998 223.84860924999998, 202.89878887499998 223.84860924999998, 235.0986185 202.89878887499998, 235.0986185 202.89878887499998, 223.84860924999998 170.69895924999997, 223.84860924999998 170.69895924999997, 235.0986185 149.43909924999997, 235.0986185 149.43909924999997, 223.84860924999998 128.17923924999997, 223.84860924999998 128.17923924999997, 235.0986185 106.91937924999999, 235.0986185 106.91937924999999, 223.84860924999998 85.65951924999999, 223.84860924999998 85.65951924999999, 235.0986185 64.39965924999998, 235.0986185 64.39965924999998, 223.84860924999998 32.19982962499999, 223.84860924999998 32.19982962499999, 235.0986185 11.25000925, 235.0986185 11.25000925, 202.89878887499998 0, 202.89878887499998 0, 170.69895924999997 11.25000925, 170.69895924999997 11.25000925, 149.43909924999997 0, 149.43909924999997 0, 128.17923924999997 11.25000925, 128.17923924999997 11.25000925, 106.91937924999999 0, 106.91937924999999 0, 85.65951924999999 11.25000925, 85.65951924999999 11.25000925, 64.39965924999998 0, 64.39965924999998 0, 32.19982962499999 11.25000925, 32.19982962499999 "/> 
</g>
<!-- Top--> 
<g transform="translate(22.5000185, 257.59863699999994) " > 
<polygon style="stroke:#000000; fill:none; stroke-width:0.0354331" points="11.25000925, 11.25000925 32.19982962499999, 11.25000925 32.19982962499999, 0 64.39965924999998, 0 64.39965924999998, 11.25000925 85.65951924999999, 11.25000925 85.65951924999999, 0 106.91937924999999, 0 106.91937924999999, 11.25000925 128.17923924999997, 11.25000925 128.17923924999997, 0 149.43909924999997, 0 149.43909924999997, 11.25000925 170.69895924999997, 11.25000925 170.69895924999997, 0 202.89878887499998, 0 202.89878887499998, 11.25000925 223.84860924999998, 11.25000925 223.84860924999998, 32.19982962499999 235.0986185, 32.19982962499999 235.0986185, 64.39965924999998 223.84860924999998, 64.39965924999998 223.84860924999998, 85.65951924999999 235.0986185, 85.65951924999999 235.0986185, 106.91937924999999 223.84860924999998, 106.91937924999999 223.84860924999998, 128.17923924999997 235.0986185, 128.17923924999997 235.0986185, 149.43909924999997 223.84860924999998, 149.43909924999997 223.84860924999998, 170.69895924999997 235.0986185, 170.69895924999997 235.0986185, 202.89878887499998 223.84860924999998, 202.89878887499998 223.84860924999998, 223.84860924999998 202.89878887499998, 223.84860924999998 202.89878887499998, 235.0986185 170.69895924999997, 235.0986185 170.69895924999997, 223.84860924999998 149.43909924999997, 223.84860924999998 149.43909924999997, 235.0986185 128.17923924999997, 235.0986185 128.17923924999997, 223.84860924999998 106.91937924999999, 223.84860924999998 106.91937924999999, 235.0986185 85.65951924999999, 235.0986185 85.65951924999999, 223.84860924999998 64.39965924999998, 223.84860924999998 64.39965924999998, 235.0986185 32.19982962499999, 235.0986185 32.19982962499999, 223.84860924999998 11.25000925, 223.84860924999998 11.25000925, 202.89878887499998 0, 202.89878887499998 0, 170.69895924999997 11.25000925, 170.69895924999997 11.25000925, 149.43909924999997 0, 149.43909924999997 0, 128.17923924999997 11.25000925, 128.17923924999997 11.25000925, 106.91937924999999 0, 106.91937924999999 0, 85.65951924999999 11.25000925, 85.65951924999999 11.25000925, 64.39965924999998 0, 64.39965924999998 0, 32.19982962499999 11.25000925, 32.19982962499999 "/> 
</g>
<!-- Bottom--> 
<g transform="translate(257.59863699999994, 257.59863699999994) " > 
<polygon style="stroke:#000000; fill:none; stroke-width:0.0354331" points="11.25000925, 11.25000925 32.19982962499999, 11.25000925 32.19982962499999, 0 64.39965924999998, 0 64.39965924999998, 11.25000925 85.65951924999999, 11.25000925 85.65951924999999, 0 106.91937924999999, 0 106.91937924999999, 11.25000925 128.17923924999997, 11.25000925 128.17923924999997, 0 149.43909924999997, 0 149.43909924999997, 11.25000925 170.69895924999997, 11.25000925 170.69895924999997, 0 202.89878887499998, 0 202.89878887499998, 11.25000925 223.84860924999998, 11.25000925 223.84860924999998, 32.19982962499999 235.0986185, 32.19982962499999 235.0986185, 64.39965924999998 223.84860924999998, 64.39965924999998 223.84860924999998, 85.65951924999999 235.0986185, 85.65951924999999 235.0986185, 106.91937924999999 223.84860924999998, 106.91937924999999 223.84860924999998, 128.17923924999997 235.0986185, 128.17923924999997 235.0986185, 149.43909924999997 223.84860924999998, 149.43909924999997 223.84860924999998, 170.69895924999997 235.0986185, 170.69895924999997 235.0986185, 202.89878887499998 223.84860924999998, 202.89878887499998 223.84860924999998, 223.84860924999998 202.89878887499998, 223.84860924999998 202.89878887499998, 235.0986185 170.69895924999997, 235.0986185 170.69895924999997, 223.84860924999998 149.43909924999997, 223.84860924999998 149.43909924999997, 235.0986185 128.17923924999997, 235.0986185 128.17923924999997, 223.84860924999998 106.91937924999999, 223.84860924999998 106.91937924999999, 235.0986185 85.65951924999999, 235.0986185 85.65951924999999, 223.84860924999998 64.39965924999998, 223.84860924999998 64.39965924999998, 235.0986185 32.19982962499999, 235.0986185 32.19982962499999, 223.84860924999998 11.25000925, 223.84860924999998 11.25000925, 202.89878887499998 0, 202.89878887499998 0, 170.69895924999997 11.25000925, 170.69895924999997 11.25000925, 149.43909924999997 0, 149.43909924999997 0, 128.17923924999997 11.25000925, 128.17923924999997 11.25000925, 106.91937924999999 0, 106.91937924999999 0, 85.65951924999999 11.25000925, 85.65951924999999 11.25000925, 64.39965924999998 0, 64.39965924999998 0, 32.19982962499999 11.25000925, 32.19982962499999 "/> 
</g></svg>